<svg id="Violin" xmlns="http://www.w3.org/2000/svg" viewBox="0 0 288 288"><defs><style>.cls-1,.cls-4{fill:none;stroke:#231f20;stroke-linecap:round;stroke-linejoin:round;}.cls-1{stroke-width:7px;}.cls-2{fill:#b62025;}.cls-3{fill:#37469d;}.cls-4{stroke-width:5px;}</style></defs><title>sce</title><g id="axes"><line class="cls-1" x1="18" y1="18" x2="18" y2="270"/><line class="cls-1" x1="270" y1="270" x2="18" y2="270"/><line class="cls-1" x1="9" y1="36" x2="18" y2="18"/><line class="cls-1" x1="27" y1="36" x2="18" y2="18"/><line class="cls-1" x1="252" y1="261" x2="270" y2="270"/><line class="cls-1" x1="252" y1="279" x2="270" y2="270"/></g><g id="vln_inside"><path class="cls-2" d="M198.43,67.71v38.21a96.84,96.84,0,0,0,9.22,20.44,112.68,112.68,0,0,0,8.45,12.3,48.51,48.51,0,0,1,6.05,10.68,39.92,39.92,0,0,1,2.78,11.15,15.86,15.86,0,0,1,.2,6.09c-.89,5.4-4.26,8.44-12.65,19.07-1.88,2.39-3.34,4.3-4.09,5.28L201,215.06l-2.52,38.21-2.52-38.21-7.44-24.13c-.75-1-2.21-2.89-4.1-5.28C176,175,172.61,172,171.72,166.58a16.28,16.28,0,0,1,.2-6.09,40.27,40.27,0,0,1,2.78-11.15,48.52,48.52,0,0,1,6.06-10.68,115.56,115.56,0,0,0,8.45-12.3,97.87,97.87,0,0,0,9.22-20.44Z"/><path class="cls-3" d="M89.25,22.11v38.2a97.87,97.87,0,0,0,9.22,20.44,116.75,116.75,0,0,0,8.45,12.31A48.43,48.43,0,0,1,113,103.73a40.33,40.33,0,0,1,2.78,11.16A16,16,0,0,1,116,121c-.88,5.4-4.26,8.45-12.64,19.07-1.89,2.39-3.35,4.3-4.1,5.29l-7.44,24.13-2.52,38.21-2.52-38.21-7.44-24.13c-.75-1-2.21-2.9-4.09-5.29C66.81,129.42,63.44,126.37,62.55,121a15.81,15.81,0,0,1,.2-6.08,40,40,0,0,1,2.78-11.16,48.42,48.42,0,0,1,6-10.67A113.82,113.82,0,0,0,80,80.75a96.84,96.84,0,0,0,9.22-20.44Z"/></g><g id="vln_border"><path class="cls-4" d="M198.43,67.71v38.21a96.84,96.84,0,0,0,9.22,20.44,112.68,112.68,0,0,0,8.45,12.3,48.51,48.51,0,0,1,6.05,10.68,39.92,39.92,0,0,1,2.78,11.15,15.86,15.86,0,0,1,.2,6.09c-.89,5.4-4.26,8.44-12.65,19.07-1.88,2.39-3.34,4.3-4.09,5.28L201,215.06l-2.52,38.21-2.52-38.21-7.44-24.13c-.75-1-2.21-2.89-4.1-5.28C176,175,172.61,172,171.72,166.58a16.28,16.28,0,0,1,.2-6.09,40.27,40.27,0,0,1,2.78-11.15,48.52,48.52,0,0,1,6.06-10.68,115.56,115.56,0,0,0,8.45-12.3,97.87,97.87,0,0,0,9.22-20.44Z"/><path class="cls-4" d="M89.25,22.11v38.2a97.87,97.87,0,0,0,9.22,20.44,116.75,116.75,0,0,0,8.45,12.31A48.43,48.43,0,0,1,113,103.73a40.33,40.33,0,0,1,2.78,11.16A16,16,0,0,1,116,121c-.88,5.4-4.26,8.45-12.64,19.07-1.89,2.39-3.35,4.3-4.1,5.29l-7.44,24.13-2.52,38.21-2.52-38.21-7.44-24.13c-.75-1-2.21-2.9-4.09-5.29C66.81,129.42,63.44,126.37,62.55,121a15.81,15.81,0,0,1,.2-6.08,40,40,0,0,1,2.78-11.16,48.42,48.42,0,0,1,6-10.67A113.82,113.82,0,0,0,80,80.75a96.84,96.84,0,0,0,9.22-20.44Z"/><line class="cls-4" x1="77.03" y1="112.89" x2="100.59" y2="112.89"/><line class="cls-4" x1="186.65" y1="160.49" x2="210.21" y2="160.49"/></g></svg>