<svg xmlns="http://www.w3.org/2000/svg" viewBox="0 0 288 288"><defs><style>.cls-1{fill:#37469d;}.cls-2{fill:#b62025;}.cls-3,.cls-4{fill:none;stroke:#231f20;stroke-linecap:round;stroke-linejoin:round;}.cls-3{stroke-width:4px;}.cls-4{stroke-width:7px;}</style></defs><title>sce</title><g id="Scatter"><g id="dot_inside"><circle class="cls-1" cx="77.28" cy="245.43" r="15.19"/><circle class="cls-1" cx="97.53" cy="201.68" r="15.19"/><circle class="cls-1" cx="67.16" cy="169.18" r="15.19"/><circle class="cls-1" cx="126.69" cy="245.81" r="15.19"/><circle class="cls-1" cx="51.78" cy="204.93" r="15.19"/><circle class="cls-2" cx="179.09" cy="30.9" r="15.19"/><circle class="cls-2" cx="230.58" cy="29.22" r="15.19"/><circle class="cls-2" cx="108.09" cy="41.87" r="15.19"/><circle class="cls-1" cx="119.91" cy="157.93" r="15.19"/><circle class="cls-1" cx="150.41" cy="184.3" r="15.19"/><circle class="cls-2" cx="207.12" cy="65.5" r="15.19"/><circle class="cls-2" cx="151.15" cy="63.81" r="15.19"/><circle class="cls-2" cx="148.9" cy="106.23" r="15.19"/><circle class="cls-2" cx="253.25" cy="99.25" r="15.19"/><circle class="cls-2" cx="105.03" cy="90.81" r="15.19"/><circle class="cls-2" cx="207.12" cy="107.91" r="15.19"/><circle class="cls-1" cx="170.66" cy="229.86" r="15.19"/></g><g id="dot_borders"><circle class="cls-3" cx="73.78" cy="243.05" r="15.19"/><circle class="cls-3" cx="94.03" cy="199.3" r="15.19"/><circle class="cls-3" cx="63.66" cy="166.8" r="15.19"/><circle class="cls-3" cx="123.19" cy="243.44" r="15.19"/><circle class="cls-3" cx="48.28" cy="202.55" r="15.19"/><circle class="cls-3" cx="175.59" cy="28.53" r="15.19"/><circle class="cls-3" cx="227.08" cy="26.84" r="15.19"/><circle class="cls-3" cx="104.59" cy="39.5" r="15.19"/><circle class="cls-3" cx="116.41" cy="155.55" r="15.19"/><circle class="cls-3" cx="146.91" cy="181.93" r="15.19"/><circle class="cls-3" cx="203.62" cy="63.12" r="15.19"/><circle class="cls-3" cx="147.65" cy="61.44" r="15.19"/><circle class="cls-3" cx="145.4" cy="103.85" r="15.19"/><circle class="cls-3" cx="249.75" cy="96.87" r="15.19"/><circle class="cls-3" cx="101.53" cy="88.44" r="15.19"/><circle class="cls-3" cx="203.62" cy="105.54" r="15.19"/><circle class="cls-3" cx="167.16" cy="227.49" r="15.19"/></g><g id="axes-2" data-name="axes"><line class="cls-4" x1="18" y1="18" x2="18" y2="270"/><line class="cls-4" x1="270" y1="270" x2="18" y2="270"/><line class="cls-4" x1="9" y1="36" x2="18" y2="18"/><line class="cls-4" x1="27" y1="36" x2="18" y2="18"/><line class="cls-4" x1="252" y1="261" x2="270" y2="270"/><line class="cls-4" x1="252" y1="279" x2="270" y2="270"/></g></g></svg>